Coordinates
version=1
nRows=14
nColumns=24
inDegrees=yes

Units are S.I. units (second, meters, Newtons, ...)
Angles are in degrees.

endheader
time	pelvis_tilt	pelvis_list	pelvis_rotation	pelvis_tx	pelvis_ty	pelvis_tz	hip_flexion_r	hip_adduction_r	hip_rotation_r	knee_angle_r	ankle_angle_r	subtalar_angle_r	mtp_angle_r	hip_flexion_l	hip_adduction_l	hip_rotation_l	knee_angle_l	ankle_angle_l	subtalar_angle_l	mtp_angle_l	lumbar_extension	lumbar_bending	lumbar_rotation
      5.68000000	     -0.70562293	     -3.62843796	    -10.66933787	      1.22376180	      0.90343583	     -0.23503416	    -17.50880300	      3.63921934	     12.74451452	    -12.33129990	     21.04976392	      3.51396398	      0.00000000	     23.94171003	     -6.82201824	     -5.08384141	     -1.68725794	      7.92475569	      0.11434833	      0.00000000	    -17.47385339	      2.43265074	      1.38929583
      5.69000000	     -0.42821460	     -3.39377022	    -10.59617239	      1.24094771	      0.90205809	     -0.23658306	    -18.08024487	      3.08042284	     11.94531767	    -13.69797166	     20.14488363	      4.43327295	      0.00000000	     24.02986392	     -6.32674509	     -5.12030006	     -3.69197311	      7.57606665	     -1.94106778	      0.00000000	    -17.50901919	      2.08298281	      1.14554684
      5.70000000	     -0.28260474	     -3.04777902	    -10.51741545	      1.25860810	      0.90066105	     -0.23822040	    -18.41906115	      2.42338002	     11.08311422	    -15.20572777	     18.87527800	      5.28245440	      0.00000000	     24.15682417	     -5.69983163	     -4.73260629	     -5.68752375	      6.72627515	     -4.10202368	      0.00000000	    -17.26142196	      1.64564234	      0.88485269
      5.71000000	     -0.16993503	     -2.64407116	    -10.43179467	      1.27644130	      0.89945892	     -0.24002193	    -18.53933481	      1.69228246	     10.04688775	    -16.99117877	     17.26802119	      6.28472746	      0.00000000	     24.26879674	     -4.96781614	     -4.07381259	     -7.67079567	      5.51572345	     -6.06973062	      0.00000000	    -16.92952409	      1.17442077	      0.63264278
      5.72000000	     -0.07759267	     -2.13515470	    -10.31275416	      1.29432972	      0.89854653	     -0.24200425	    -18.43669710	      0.84080432	      8.89509165	    -19.03863832	     15.30079298	      7.38884172	      0.00000000	     24.41992696	     -4.07155085	     -3.24515596	     -9.68998844	      4.05826308	     -7.73182847	      0.00000000	    -16.55245622	      0.60460746	      0.35698543
      5.73000000	      0.03798525	     -1.56217128	    -10.12777291	      1.31213101	      0.89805640	     -0.24417409	    -18.15296113	     -0.07740122	      7.75986870	    -21.33975185	     12.90676165	      8.49405567	      0.00000000	     24.58044034	     -3.02556429	     -2.20206930	    -11.74687778	      2.47570953	     -9.21569738	      0.00000000	    -16.23000536	     -0.01303101	     -0.01444632
      5.74000000	      0.21218836	     -0.96454910	     -9.84510896	      1.32978675	      0.89801479	     -0.24649180	    -17.71965797	     -1.00560999	      6.68164313	    -23.90030935	     10.12353910	      9.55256316	      0.00000000	     24.74281182	     -1.85811740	     -1.02283384	    -13.92028828	      1.08647746	    -10.44061883	      0.00000000	    -16.02070174	     -0.65308271	     -0.36230144
      5.75000000	      0.46620612	     -0.41195071	     -9.47611831	      1.34719273	      0.89840729	     -0.24886404	    -17.15941591	     -1.83956530	      5.84489223	    -26.71988606	      6.99111608	     10.36584067	      0.00000000	     24.84960777	     -0.64129490	      0.23326463	    -16.18641536	      0.07248139	    -11.52710732	      0.00000000	    -15.99010280	     -1.23878074	     -0.81051929
      5.76000000	      0.81673366	      0.00328448	     -9.10843408	      1.36413609	      0.89921459	     -0.25112638	    -16.45649123	     -2.47046827	      5.41553391	    -29.82840952	      3.64231353	     10.83331177	      0.00000000	     24.81046729	      0.49608400	      1.55135738	    -18.46340879	     -0.50534666	    -12.60144905	      0.00000000	    -16.20569973	     -1.70367055	     -1.10227151
      5.77000000	      1.20451856	      0.35278272	     -8.76381108	      1.38063822	      0.90021498	     -0.25316859	    -15.50599335	     -2.93690067	      5.33352369	    -33.27410147	      0.27886259	     10.89697484	      0.00000000	     24.63971765	      1.57012937	      2.67592380	    -20.64459700	     -0.52983699	    -13.53563218	      0.00000000	    -16.56272746	     -2.12196662	     -1.31821790
      5.78000000	      1.60833169	      0.71432396	     -8.57536049	      1.39668408	      0.90128874	     -0.25471352	    -14.23615006	     -3.32742313	      5.56814218	    -37.07735729	     -2.96833861	     10.35474510	      0.00000000	     24.27498752	      2.55942636	      3.40433635	    -22.55237368	      0.03215573	    -14.29260448	      0.00000000	    -16.98464371	     -2.62976192	     -1.38598044
      5.79000000	      1.79646080	      1.06369724	     -8.43781772	      1.41208830	      0.90212718	     -0.25607069	    -12.40763217	     -3.56888987	      5.95299791	    -41.19030841	     -6.02057983	      9.24688514	      0.00000000	     23.95301006	      3.45755951	      3.98900376	    -24.10909089	      0.82924628	    -15.08151327	      0.00000000	    -17.22149064	     -3.09356913	     -1.39768739
      5.80000000	      1.86258131	      1.61791613	     -8.55949704	      1.42705442	      0.90284005	     -0.25675341	    -10.12392156	     -3.94034513	      6.53184154	    -45.49810748	     -8.73323053	      7.41414609	      0.00000000	     23.51875209	      4.34426248	      4.04166178	    -25.16307455	      1.99225126	    -15.51375604	      0.00000000	    -17.26692717	     -3.88743448	     -1.24286891
      5.81000000	      1.90241806	      2.35502421	     -8.81666934	      1.44154948	      0.90358117	     -0.25712435	     -7.58378816	     -4.43995850	      7.14275856	    -49.78280007	    -10.97783939	      4.90281029	      0.00000000	     22.90217365	      5.28904581	      3.74880435	    -25.71347969	      3.20091036	    -15.82883776	      0.00000000	    -17.25960186	     -4.91570636	     -1.08842289
